<svg width="24" height="24" viewBox="0 0 24 24" fill="none" xmlns="http://www.w3.org/2000/svg">
<mask id="mask0_423_1035" style="mask-type:alpha" maskUnits="userSpaceOnUse" x="0" y="0" width="24" height="24">
<rect width="24" height="24" fill="#D9D9D9"/>
</mask>
<g mask="url(#mask0_423_1035)">
<path d="M4.25003 17.5C4.03753 17.5 3.85941 17.428 3.71566 17.2842C3.57191 17.1404 3.50003 16.9622 3.50003 16.7496C3.50003 16.537 3.57191 16.3589 3.71566 16.2154C3.85941 16.0718 4.03753 16 4.25003 16H14.9615C15.174 16 15.3522 16.0719 15.4959 16.2157C15.6397 16.3595 15.7115 16.5377 15.7115 16.7503C15.7115 16.9629 15.6397 17.141 15.4959 17.2846C15.3522 17.4282 15.174 17.5 14.9615 17.5H4.25003ZM18.9192 16.0211L15.5212 12.6327C15.3404 12.4519 15.25 12.241 15.25 12C15.25 11.759 15.3404 11.5481 15.5212 11.3673L18.9192 7.98845C19.0577 7.85 19.2317 7.77917 19.4413 7.77595C19.6509 7.77275 19.8282 7.84358 19.9731 7.98845C20.1179 8.13332 20.1904 8.30896 20.1904 8.51538C20.1904 8.72178 20.1179 8.89741 19.9731 9.04228L16.9865 12L19.9731 14.9673C20.1179 15.1036 20.1904 15.2771 20.1904 15.4878C20.1904 15.6985 20.1179 15.8762 19.9731 16.0211C19.8367 16.1596 19.6632 16.2288 19.4526 16.2288C19.2419 16.2288 19.0641 16.1596 18.9192 16.0211ZM4.25003 12.75C4.03753 12.75 3.85941 12.6781 3.71566 12.5343C3.57191 12.3904 3.50003 12.2122 3.50003 11.9997C3.50003 11.7871 3.57191 11.609 3.71566 11.4654C3.85941 11.3218 4.03753 11.25 4.25003 11.25H12.0385C12.251 11.25 12.4291 11.3219 12.5728 11.4657C12.7166 11.6095 12.7885 11.7877 12.7885 12.0003C12.7885 12.2129 12.7166 12.391 12.5728 12.5346C12.4291 12.6782 12.251 12.75 12.0385 12.75H4.25003ZM4.25003 7.99998C4.03753 7.99998 3.85941 7.92807 3.71566 7.78425C3.57191 7.64045 3.50003 7.46225 3.50003 7.24965C3.50003 7.03707 3.57191 6.85898 3.71566 6.7154C3.85941 6.5718 4.03753 6.5 4.25003 6.5H14.9615C15.174 6.5 15.3522 6.57191 15.4959 6.71573C15.6397 6.85954 15.7115 7.03774 15.7115 7.25033C15.7115 7.46293 15.6397 7.64102 15.4959 7.7846C15.3522 7.92818 15.174 7.99998 14.9615 7.99998H4.25003Z" fill="black"/>
</g>
</svg>
