<svg width="765" height="304" viewBox="0 0 765 304" fill="none" xmlns="http://www.w3.org/2000/svg">
<path d="M0.494507 263.666C10.3813 263.325 20.6009 260.153 30.3886 258.522C37.4511 257.344 44.9337 253.766 51.9375 253.377C59.2821 252.969 61.6763 259.458 66.1129 263.894C71.1502 268.932 78.5552 268.113 84.8611 267.781C88.0815 267.612 93.8214 266.7 96.693 268.296C101.279 270.843 105.236 274.304 110.125 276.527C120.688 281.328 137.951 277.795 148.593 274.469C159.015 271.212 170.107 266.906 180.545 272.125C186.083 274.894 193.268 276.7 199.065 277.041C202.761 277.258 219.177 279.439 220.613 274.412C221.318 271.945 218.613 267.499 218.613 264.695C218.613 260.237 218.642 259.992 222.214 258.007C225.727 256.055 229.075 256.464 233.017 256.464C236.517 256.464 234.918 262.039 235.075 264.695C235.111 265.311 237.054 266.638 237.647 266.638C239.152 266.638 239.011 263.005 239.247 262.18C239.966 259.665 245.74 259.51 247.421 260.351C251.012 262.146 251.491 259.275 255.137 258.464C260.417 257.291 257.927 259.642 261.368 261.608C264.135 263.189 267.161 264.504 270.056 265.952C274.721 268.285 267.195 260.586 271.599 259.608C279.264 257.904 279.316 253.324 279.316 246.175C279.316 239.588 279.495 234.617 284.689 229.942C287.989 226.972 294.411 224.978 295.835 219.996C296.504 217.655 297.887 214.346 296.006 211.994C293.799 209.236 296.145 205.577 298.292 204.964C299.699 204.562 298.931 187.619 299.95 185.072C300.974 182.513 301.918 190.238 303.208 192.674C304.718 195.527 305.037 199.218 305.037 202.449C305.037 206.854 305.186 216.417 307.324 220.454C307.669 221.105 310.044 222.252 310.753 222.454C313.237 223.164 312.095 223.219 313.783 224.569C315.324 225.803 315.939 228.84 317.612 230.514C321.393 234.295 321.499 241.385 321.499 246.69C321.499 248.477 320.773 254.315 321.499 254.406C325.315 254.883 323.557 257.16 323.557 260.065C323.557 261.307 324.628 267.781 325.614 267.781C326.693 267.781 329.594 265.465 329.73 267.781C329.825 269.394 330.683 270.605 330.759 271.897C331.128 278.173 343.306 277.443 345.963 272.926C347.351 270.566 347.266 266.613 349.793 265.209C352.766 263.557 355.583 263.666 359.052 263.666C362.685 263.666 363.768 257.624 368.369 257.493C371.968 257.39 378.496 261.461 381.687 258.979C387.677 254.32 395.357 245.062 402.779 252.92C407.627 258.053 409.318 265.824 414.096 270.868C418.138 275.134 425.444 278.934 431.073 280.185C433.209 280.659 437.432 281.875 439.018 282.986C439.972 283.653 443.933 278.648 443.933 277.555C443.933 275.171 465.165 276.012 468.626 276.012C470.539 276.012 475.398 276.768 476.342 276.012C477.787 274.856 479.389 271.304 480.744 269.61C484.082 265.438 483.624 257.264 486.917 253.149C488.134 251.628 488.174 246.633 488.174 244.632C488.174 241.81 492.024 240.139 494.348 240.002C495.536 239.932 496.045 232.774 496.462 231.314C496.979 229.505 499.778 225.598 500.978 224.055C506.141 217.416 510.108 207.519 511.895 199.476C512.471 196.885 510.856 196.848 508.98 194.504C508.285 193.634 514.488 188.002 515.153 186.273C516.579 182.567 518.724 178.016 520.583 174.669C522.542 171.144 522.368 166.22 523.384 162.38C526.076 152.211 529.329 142.014 529.329 131.4C529.329 116.52 529.329 101.639 529.329 86.759C529.329 78.5639 530.358 70.5899 530.358 62.4664C530.358 58.2102 531.62 54.6598 531.387 50.6917C531.238 48.1688 526.242 47.8812 526.242 44.0041C526.242 39.6106 528.908 40.6737 530.586 37.3165C531.506 35.4766 531.387 33.6584 531.387 31.6578C531.387 29.2188 532.922 28.605 533.387 26.5135C534.263 22.5721 535.502 18.243 535.502 14.1671C535.502 9.98498 535.608 -5.78269 538.646 4.85023C539.545 7.99878 539.617 11.0525 539.617 14.6816C539.617 17.2112 540.044 24.2992 541.447 26.2277C542.344 27.4614 541.033 29.3578 542.247 30.5717C543.205 31.5297 545.252 31.0579 545.733 32.7438C546.6 35.7782 543.237 37.67 546.019 40.1744C548.671 42.561 547.929 45.1969 546.305 48.1195C544.41 51.5313 544.762 55.6173 544.762 59.437C544.762 74.5791 548.877 90.0125 548.877 105.278C548.877 119.671 549.137 134.596 549.906 148.433C550.25 154.624 551.018 173.072 557.108 177.013C561.365 179.768 565.42 188.019 564.253 192.103C563.326 195.347 561.157 198.354 563.053 201.934C564.229 204.155 565.879 206.163 566.425 208.622C567.107 211.69 568.977 215.522 570.255 218.396C571.812 221.901 572.449 228.57 574.827 231.542C576.194 233.251 576.698 238.177 579.286 238.916C583.725 240.184 582.538 236.398 584.659 242.288C586.677 247.894 588.475 255.547 592.089 260.065C593.958 262.401 596.322 263.543 598.491 265.495C601.724 268.405 602.747 264.441 605.979 263.723C612.674 262.235 619.981 264.959 626.842 264.695C630.53 264.553 635.23 260.849 638.902 261.665C644.582 262.927 648.812 265.945 653.821 268.581C666.031 275.008 674.092 287.691 686.745 294.017C692.74 297.015 698.525 299.676 705.264 299.676C710.956 299.676 718.83 302.65 724.241 300.19C734.002 295.753 755.076 297.903 763.909 303.791" stroke="black" stroke-width="0.5" stroke-linecap="round"/>
</svg>
