<svg width="24" height="24" viewBox="0 0 24 24" fill="none" xmlns="http://www.w3.org/2000/svg">
<mask id="mask0_463_228" style="mask-type:alpha" maskUnits="userSpaceOnUse" x="0" y="0" width="24" height="24">
<rect width="24" height="24" fill="#D9D9D9"/>
</mask>
<g mask="url(#mask0_463_228)">
<path d="M19.5423 20.5769L13.2615 14.2961C12.7615 14.7089 12.1865 15.032 11.5365 15.2653C10.8865 15.4987 10.2141 15.6153 9.51923 15.6153C7.81006 15.6153 6.36354 15.0236 5.17968 13.84C3.99581 12.6564 3.40388 11.2103 3.40388 9.50157C3.40388 7.79284 3.99566 6.34616 5.17923 5.16154C6.36279 3.97694 7.80894 3.38464 9.51768 3.38464C11.2264 3.38464 12.6731 3.97658 13.8577 5.16044C15.0423 6.34431 15.6346 7.79083 15.6346 9.49999C15.6346 10.2141 15.5147 10.8961 15.275 11.5461C15.0352 12.1961 14.7154 12.7615 14.3154 13.2423L20.5961 19.5231L19.5423 20.5769ZM9.51923 14.1154C10.8077 14.1154 11.899 13.6683 12.7933 12.774C13.6875 11.8798 14.1346 10.7885 14.1346 9.49999C14.1346 8.21153 13.6875 7.12018 12.7933 6.22594C11.899 5.33171 10.8077 4.88459 9.51923 4.88459C8.23076 4.88459 7.13941 5.33171 6.24518 6.22594C5.35096 7.12018 4.90385 8.21153 4.90385 9.49999C4.90385 10.7885 5.35096 11.8798 6.24518 12.774C7.13941 13.6683 8.23076 14.1154 9.51923 14.1154Z" fill="#1C1B1F"/>
</g>
</svg>
