<svg width="24" height="24" viewBox="0 0 24 24" fill="none" xmlns="http://www.w3.org/2000/svg">
<mask id="mask0_440_861" style="mask-type:alpha" maskUnits="userSpaceOnUse" x="0" y="0" width="24" height="24">
<rect width="24" height="24" fill="#D9D9D9"/>
</mask>
<g mask="url(#mask0_440_861)">
<path d="M15.9231 17.3269C16.3141 17.3269 16.6458 17.1907 16.9182 16.9182C17.1907 16.6458 17.3269 16.3141 17.3269 15.9231C17.3269 15.532 17.1907 15.2003 16.9182 14.9279C16.6458 14.6554 16.3141 14.5192 15.9231 14.5192C15.532 14.5192 15.2003 14.6554 14.9279 14.9279C14.6554 15.2003 14.5192 15.532 14.5192 15.9231C14.5192 16.3141 14.6554 16.6458 14.9279 16.9182C15.2003 17.1907 15.532 17.3269 15.9231 17.3269ZM12 13.4038C12.391 13.4038 12.7227 13.2676 12.9952 12.9952C13.2676 12.7227 13.4038 12.391 13.4038 12C13.4038 11.609 13.2676 11.2772 12.9952 11.0048C12.7227 10.7324 12.391 10.5961 12 10.5961C11.609 10.5961 11.2773 10.7324 11.0048 11.0048C10.7324 11.2772 10.5961 11.609 10.5961 12C10.5961 12.391 10.7324 12.7227 11.0048 12.9952C11.2773 13.2676 11.609 13.4038 12 13.4038ZM8.07692 9.48075C8.46796 9.48075 8.79969 9.34453 9.07212 9.0721C9.34456 8.79967 9.48077 8.46793 9.48077 8.0769C9.48077 7.68588 9.34456 7.35416 9.07212 7.08173C8.79969 6.80929 8.46796 6.67308 8.07692 6.67308C7.68591 6.67308 7.35418 6.80929 7.08175 7.08173C6.80931 7.35416 6.6731 7.68588 6.6731 8.0769C6.6731 8.46793 6.80931 8.79967 7.08175 9.0721C7.35418 9.34453 7.68591 9.48075 8.07692 9.48075ZM5.30772 20.5C4.80259 20.5 4.37502 20.325 4.02502 19.975C3.67502 19.625 3.50002 19.1974 3.50002 18.6923V5.3077C3.50002 4.80257 3.67502 4.375 4.02502 4.025C4.37502 3.675 4.80259 3.5 5.30772 3.5H18.6923C19.1974 3.5 19.625 3.675 19.975 4.025C20.325 4.375 20.5 4.80257 20.5 5.3077V18.6923C20.5 19.1974 20.325 19.625 19.975 19.975C19.625 20.325 19.1974 20.5 18.6923 20.5H5.30772ZM5.30772 19H18.6923C18.7692 19 18.8397 18.9679 18.9038 18.9038C18.9679 18.8397 19 18.7692 19 18.6923V5.3077C19 5.23077 18.9679 5.16024 18.9038 5.09613C18.8397 5.03203 18.7692 4.99998 18.6923 4.99998H5.30772C5.23079 4.99998 5.16026 5.03203 5.09615 5.09613C5.03205 5.16024 5 5.23077 5 5.3077V18.6923C5 18.7692 5.03205 18.8397 5.09615 18.9038C5.16026 18.9679 5.23079 19 5.30772 19Z" fill="#1C1B1F"/>
</g>
</svg>
