<svg width="24" height="24" viewBox="0 0 24 24" fill="none" xmlns="http://www.w3.org/2000/svg">
<mask id="mask0_653_171" style="mask-type:alpha" maskUnits="userSpaceOnUse" x="0" y="0" width="24" height="24">
<rect width="24" height="24" fill="#D9D9D9"/>
</mask>
<g mask="url(#mask0_653_171)">
<path d="M12.0017 11.8654C12.4993 11.8654 12.9247 11.6882 13.2779 11.3339C13.6311 10.9795 13.8077 10.5536 13.8077 10.056C13.8077 9.55839 13.6305 9.133 13.2762 8.7798C12.9218 8.4266 12.4959 8.25 11.9983 8.25C11.5007 8.25 11.0753 8.42717 10.7221 8.7815C10.3689 9.13583 10.1923 9.56179 10.1923 10.0594C10.1923 10.557 10.3695 10.9824 10.7238 11.3356C11.0782 11.6888 11.5041 11.8654 12.0017 11.8654ZM12 19.5135C13.9564 17.7622 15.4535 16.0824 16.4914 14.474C17.5292 12.8657 18.0481 11.457 18.0481 10.2481C18.0481 8.42498 17.4689 6.92627 16.3106 5.7519C15.1522 4.57753 13.7154 3.99035 12 3.99035C10.2846 3.99035 8.84776 4.57753 7.68942 5.7519C6.53109 6.92627 5.95192 8.42498 5.95192 10.2481C5.95192 11.457 6.47083 12.8657 7.50865 14.474C8.54648 16.0824 10.0436 17.7622 12 19.5135ZM12 21.5096C9.48335 19.3288 7.59618 17.2993 6.33848 15.4211C5.08079 13.5429 4.45195 11.8186 4.45195 10.2481C4.45195 7.94038 5.19843 6.07213 6.69138 4.64328C8.18431 3.21443 9.95385 2.5 12 2.5C14.0462 2.5 15.8157 3.21443 17.3086 4.64328C18.8016 6.07213 19.548 7.94038 19.548 10.2481C19.548 11.8186 18.9192 13.5429 17.6615 15.4211C16.4038 17.2993 14.5167 19.3288 12 21.5096Z" fill="#1C1B1F"/>
</g>
</svg>
