<svg width="24" height="24" viewBox="0 0 24 24" fill="none" xmlns="http://www.w3.org/2000/svg">
<mask id="mask0_665_202" style="mask-type:alpha" maskUnits="userSpaceOnUse" x="0" y="0" width="24" height="24">
<rect width="24" height="24" fill="#D9D9D9"/>
</mask>
<g mask="url(#mask0_665_202)">
<path d="M6.04213 21.6442C6.12411 21.7563 6.22104 21.8567 6.22104 22M6.22104 18C6.22104 17.3402 6.33145 17.1255 6.5 16.5C6.77098 15.4943 7.65734 15.0744 8.5 14.5C10.1265 13.3912 12.1632 13.4849 13.9225 12.5991C15.3248 11.8931 16.7075 11.2459 17.9897 10.3442C19.0609 9.59096 19.5689 8.68253 19.6596 7.395C19.8202 5.11448 17.2239 3.23286 15.2182 2.48847C12.8705 1.61713 10.0911 1.95908 7.90834 3.13651C7.04598 3.60168 5.9875 4.22469 5.58027 5.12028C5.21727 5.91858 4.87206 6.70009 5.04675 7.60661C5.12376 8.00622 5.29123 8.37787 5.39319 8.76711C5.48002 9.09859 5.79581 9.24405 6.03757 9.46474C6.41515 9.80942 6.89561 10.0371 7.32632 10.3111M14.3333 15.9231L19.6667 21.8901" stroke="black" stroke-width="2" stroke-linecap="round" stroke-linejoin="round"/>
</g>
</svg>
