<svg width="24" height="24" viewBox="0 0 24 24" fill="none" xmlns="http://www.w3.org/2000/svg">
<mask id="mask0_653_188" style="mask-type:alpha" maskUnits="userSpaceOnUse" x="0" y="0" width="24" height="24">
<rect width="24" height="24" fill="#D9D9D9"/>
</mask>
<g mask="url(#mask0_653_188)">
<path d="M15.9731 17.0269L17.0269 15.9731L13.25 12.1959V7.49998H11.75V12.8038L15.9731 17.0269ZM12.5016 22C11.1877 22 9.95268 21.7506 8.79655 21.252C7.6404 20.7533 6.63472 20.0765 5.7795 19.2217C4.92427 18.3669 4.24721 17.3616 3.74833 16.206C3.24944 15.0504 3 13.8156 3 12.5017C3 11.1877 3.24933 9.95268 3.748 8.79655C4.24667 7.6404 4.92342 6.63472 5.77825 5.7795C6.6331 4.92427 7.63834 4.24721 8.79398 3.74833C9.94959 3.24944 11.1844 3 12.4983 3C13.8122 3 15.0473 3.24933 16.2034 3.748C17.3596 4.24667 18.3652 4.92342 19.2205 5.77825C20.0757 6.6331 20.7527 7.63834 21.2516 8.79398C21.7505 9.94959 22 11.1844 22 12.4983C22 13.8122 21.7506 15.0473 21.252 16.2034C20.7533 17.3596 20.0765 18.3652 19.2217 19.2205C18.3669 20.0757 17.3616 20.7527 16.206 21.2516C15.0504 21.7505 13.8156 22 12.5016 22ZM12.5 20.5C14.7166 20.5 16.6041 19.7208 18.1625 18.1625C19.7208 16.6041 20.5 14.7166 20.5 12.5C20.5 10.2833 19.7208 8.39581 18.1625 6.83748C16.6041 5.27914 14.7166 4.49998 12.5 4.49998C10.2833 4.49998 8.39581 5.27914 6.83748 6.83748C5.27914 8.39581 4.49998 10.2833 4.49998 12.5C4.49998 14.7166 5.27914 16.6041 6.83748 18.1625C8.39581 19.7208 10.2833 20.5 12.5 20.5Z" fill="#1C1B1F"/>
</g>
</svg>
